<svg width="349.417431640625px" height="131.0099609375px" xmlns="http://www.w3.org/2000/svg" viewBox="75.2912841796875 9.495019531249994 349.417431640625 131.0099609375" style="background: rgba(0, 0, 0, 0);" preserveAspectRatio="xMidYMid"><defs>
  <filter id="editing-scratch" x="-100%" y="-100%" width="300%" height="300%">
    <!-- COLOR -->
    <feFlood flood-color="#ddd" flood-opacity="0.75" result="COLOR-blu"></feFlood>
    <feFlood flood-color="#666" flood-opacity="0.4" result="COLOR-red"></feFlood>
    <!-- COLOR END -->

    <!-- Texture -->
    <feTurbulence baseFrequency=".05" type="fractalNoise" numOctaves="3" seed="0" result="Texture_10"></feTurbulence>
    <feColorMatrix type="matrix" values="0 0 0 0 0,
    0 0 0 0 0,
    0 0 0 0 0,
    0 0 0 -2.1 1.1" in="Texture_10" result="Texture_20"></feColorMatrix>

    <feColorMatrix result="Texture_30" type="matrix" values="0 0 0 0 0,
    0 0 0 0 0,
    0 0 0 0 0,
    0 0 0 -1.7 1.8" in="Texture_10"></feColorMatrix>
    <!-- Texture -->

    <!-- FILL -->
    <feOffset dx="-3" dy="4" in="SourceAlpha" result="FILL_10"></feOffset>
    <feDisplacementMap scale="17" in="FILL_10" in2="Texture_10" result="FILL_20"></feDisplacementMap>
    <feComposite operator="in" in="Texture_30" in2="FILL_20" result="FILL_40"></feComposite>
    <feComposite operator="in" in="COLOR-blu" in2="FILL_40" result="FILL_50"></feComposite>
    <!-- FILL END-->

    <!-- OUTLINE -->
    <feMorphology operator="dilate" radius="3" in="SourceGraphic" result="OUTLINE_10"></feMorphology>
    <feComposite operator="out" in="OUTLINE_10" in2="SourceGraphic" result="OUTLINE_20"></feComposite>
    <feDisplacementMap scale="7" in="OUTLINE_20" in2="Texture_10" result="OUTLINE_30"></feDisplacementMap>
    <feComposite operator="arithmetic" k2="-1" k3="1" in="Texture_20" in2="OUTLINE_30" result="OUTLINE_40"></feComposite>
    <!-- OUTLINE END-->

    <!-- BEVEL OUTLINE -->
    <feConvolveMatrix order="8,8" divisor="1" kernelMatrix="1 0 0 0 0 0 0 0 0 1 0 0 0 0 0 0 0 0 1 0 0 0 0 0 0 0 0 1 0 0 0 0 0 0 0 0 1 0 0 0 0 0 0 0 0 1 0 0 0 0 0 0 0 0 1 0 0 0 0 0 0 0 0 1 " in="SourceGraphic" result="BEVEL_10"></feConvolveMatrix>
    <feMorphology operator="dilate" radius="2" in="BEVEL_10" result="BEVEL_20"></feMorphology>
    <feComposite operator="out" in="BEVEL_20" in2="BEVEL_10" result="BEVEL_30"></feComposite>
    <feDisplacementMap scale="7" in="BEVEL_30" in2="Texture_10" result="BEVEL_40"></feDisplacementMap>
    <feComposite operator="arithmetic" k2="-1" k3="1" in="Texture_20" in2="BEVEL_40" result="BEVEL_50"></feComposite>
    <feOffset dx="-7" dy="-7" in="BEVEL_50" result="BEVEL_60"></feOffset>
    <feComposite operator="out" in="BEVEL_60" in2="OUTLINE_10" result="BEVEL_70"></feComposite>
    <!-- BEVEL OUTLINE END -->

    <!-- BEVEL FILL -->
    <feOffset dx="-9" dy="-9" in="BEVEL_10" result="BEVEL-FILL_10"></feOffset>
    <feComposite operator="out" in="BEVEL-FILL_10" in2="OUTLINE_10" result="BEVEL-FILL_20"></feComposite>
    <feDisplacementMap scale="17" in="BEVEL-FILL_20" in2="Texture_10" result="BEVEL-FILL_30"></feDisplacementMap>
    <feComposite operator="in" in="COLOR-red" in2="BEVEL-FILL_30" result="BEVEL-FILL_50"></feComposite> <!-- -->
    <!-- BEVEL FILL END-->

    <feMerge result="merge2">
     <feMergeNode in="BEVEL-FILL_50"></feMergeNode>
     <feMergeNode in="BEVEL_70"></feMergeNode>
     <feMergeNode in="FILL_50"></feMergeNode>
      <feMergeNode in="OUTLINE_40"></feMergeNode>
    </feMerge>
  </filter>
</defs>
<g filter="url(#editing-scratch)"><g transform="translate(128.3450026512146, 99.82999992370605)"><path d="M41.78-26.50L41.78-18.31L16.09-18.31L16.09-26.50L41.78-26.50ZM45.41-44.81L45.41-36.69L12.84-36.69L12.84 0L4.72 0L4.72-40.72L4.72-40.72Q4.72-41.56 5.03-42.31L5.03-42.31L5.03-42.31Q5.34-43.06 5.89-43.63L5.89-43.63L5.89-43.63Q6.44-44.19 7.19-44.50L7.19-44.50L7.19-44.50Q7.94-44.81 8.81-44.81L8.81-44.81L45.41-44.81ZM83.63-22.59L83.63-11.19L83.63-11.19Q83.63-9.50 83.03-7.55L83.03-7.55L83.03-7.55Q82.44-5.59 81.11-3.92L81.11-3.92L81.11-3.92Q79.78-2.25 77.64-1.13L77.64-1.13L77.64-1.13Q75.50 0 72.44 0L72.44 0L57.78 0L57.78 0Q56.09 0 54.14-0.59L54.14-0.59L54.14-0.59Q52.19-1.19 50.52-2.52L50.52-2.52L50.52-2.52Q48.84-3.84 47.72-5.98L47.72-5.98L47.72-5.98Q46.59-8.13 46.59-11.19L46.59-11.19L46.59-11.19Q46.59-12.88 47.19-14.84L47.19-14.84L47.19-14.84Q47.78-16.81 49.11-18.48L49.11-18.48L49.11-18.48Q50.44-20.16 52.58-21.28L52.58-21.28L52.58-21.28Q54.72-22.41 57.78-22.41L57.78-22.41L72.44-22.41L72.44-14.66L57.78-14.66L57.78-14.66Q56.13-14.66 55.22-13.64L55.22-13.64L55.22-13.64Q54.31-12.63 54.31-11.13L54.31-11.13L54.31-11.13Q54.31-9.53 55.36-8.64L55.36-8.64L55.36-8.64Q56.41-7.75 57.84-7.75L57.84-7.75L72.44-7.75L72.44-7.75Q74.09-7.75 75-8.75L75-8.75L75-8.75Q75.91-9.75 75.91-11.25L75.91-11.25L75.91-22.59L75.91-22.59Q75.91-24.19 74.92-25.13L74.92-25.13L74.92-25.13Q73.94-26.06 72.44-26.06L72.44-26.06L54.59-26.06L54.59-33.78L72.44-33.78L72.44-33.78Q74.13-33.78 76.08-33.19L76.08-33.19L76.08-33.19Q78.03-32.59 79.70-31.27L79.70-31.27L79.70-31.27Q81.38-29.94 82.50-27.80L82.50-27.80L82.50-27.80Q83.63-25.66 83.63-22.59L83.63-22.59ZM111.13-18.44L130.25 0L118.53 0L102.16-15.81L102.16-15.81Q100.78-17.06 100.88-18.94L100.88-18.94L100.88-18.94Q100.94-19.81 101.33-20.58L101.33-20.58L101.33-20.58Q101.72-21.34 102.41-21.88L102.41-21.88L117.25-33.84L130.25-33.84L111.13-18.44ZM98.81-48.06L98.81 0L90.69 0L90.69-48.06L98.81-48.06ZM178.41-44.81L178.41-29.81L178.41-29.81Q178.41-27.03 177.70-24.84L177.70-24.84L177.70-24.84Q177-22.66 175.84-20.98L175.84-20.98L175.84-20.98Q174.69-19.31 173.14-18.13L173.14-18.13L173.14-18.13Q171.59-16.94 169.94-16.17L169.94-16.17L169.94-16.17Q168.28-15.41 166.58-15.06L166.58-15.06L166.58-15.06Q164.88-14.72 163.38-14.72L163.38-14.72L160.09-14.72L160.09 0L151.91 0L151.91-14.72L148.66-14.72L148.66-14.72Q147.16-14.72 145.45-15.06L145.45-15.06L145.45-15.06Q143.75-15.41 142.08-16.17L142.08-16.17L142.08-16.17Q140.41-16.94 138.88-18.13L138.88-18.13L138.88-18.13Q137.34-19.31 136.17-20.98L136.17-20.98L136.17-20.98Q135-22.66 134.30-24.86L134.30-24.86L134.30-24.86Q133.59-27.06 133.59-29.81L133.59-29.81L133.59-44.81L141.72-44.81L141.72-29.81L141.72-29.81Q141.72-28.22 142.22-26.95L142.22-26.95L142.22-26.95Q142.72-25.69 143.63-24.78L143.63-24.78L143.63-24.78Q144.53-23.88 145.83-23.39L145.83-23.39L145.83-23.39Q147.13-22.91 148.72-22.91L148.72-22.91L163.38-22.91L163.38-22.91Q164.53-23.09 165.75-23.39L165.75-23.39L165.75-23.39Q166.97-23.69 167.97-24.41L167.97-24.41L167.97-24.41Q168.97-25.13 169.63-26.41L169.63-26.41L169.63-26.41Q170.28-27.69 170.28-29.81L170.28-29.81L170.28-44.81L178.41-44.81ZM221.75-33.78L221.75-4.09L221.75-4.09Q221.75-3.22 221.44-2.47L221.44-2.47L221.44-2.47Q221.13-1.72 220.58-1.17L220.58-1.17L220.58-1.17Q220.03-0.63 219.30-0.31L219.30-0.31L219.30-0.31Q218.56 0 217.72 0L217.72 0L199.34 0L199.34 0Q197.84 0 196.14-0.34L196.14-0.34L196.14-0.34Q194.44-0.69 192.78-1.45L192.78-1.45L192.78-1.45Q191.13-2.22 189.58-3.39L189.58-3.39L189.58-3.39Q188.03-4.56 186.88-6.23L186.88-6.23L186.88-6.23Q185.72-7.91 185.02-10.09L185.02-10.09L185.02-10.09Q184.31-12.28 184.31-15.03L184.31-15.03L184.31-33.78L192.44-33.78L192.44-15.03L192.44-15.03Q192.44-13.44 192.98-12.17L192.98-12.17L192.98-12.17Q193.53-10.91 194.47-10L194.47-10L194.47-10Q195.41-9.09 196.67-8.61L196.67-8.61L196.67-8.61Q197.94-8.13 199.41-8.13L199.41-8.13L213.63-8.13L213.63-33.78L221.75-33.78ZM216.19-49.66L219.63-42.06L203.31-36.22L201.16-40.91L216.19-49.66ZM238.59-44.81L236.69-11L231.09-11L229.19-44.81L238.59-44.81ZM237.97-4.09L237.97-4.09L237.97-4.09Q237.97-3.25 237.64-2.52L237.64-2.52L237.64-2.52Q237.31-1.78 236.77-1.23L236.77-1.23L236.77-1.23Q236.22-0.69 235.48-0.38L235.48-0.38L235.48-0.38Q234.75-0.06 233.94-0.06L233.94-0.06L233.94-0.06Q233.09-0.06 232.36-0.38L232.36-0.38L232.36-0.38Q231.63-0.69 231.08-1.23L231.08-1.23L231.08-1.23Q230.53-1.78 230.22-2.52L230.22-2.52L230.22-2.52Q229.91-3.25 229.91-4.09L229.91-4.09L229.91-4.09Q229.91-4.91 230.22-5.64L230.22-5.64L230.22-5.64Q230.53-6.38 231.08-6.92L231.08-6.92L231.08-6.92Q231.63-7.47 232.36-7.80L232.36-7.80L232.36-7.80Q233.09-8.13 233.94-8.13L233.94-8.13L233.94-8.13Q234.75-8.13 235.48-7.80L235.48-7.80L235.48-7.80Q236.22-7.47 236.77-6.92L236.77-6.92L236.77-6.92Q237.31-6.38 237.64-5.64L237.64-5.64L237.64-5.64Q237.97-4.91 237.97-4.09Z" fill="#000"></path></g></g><style>text {
  font-size: 64px;
  font-family: Arial Black;
  dominant-baseline: central;
  text-anchor: middle;
}</style></svg>