<svg width="308.87246093749997px" height="118.4298828125px" xmlns="http://www.w3.org/2000/svg" viewBox="95.56376953125002 15.785058593750001 308.87246093749997 118.4298828125" style="background: rgba(0, 0, 0, 0);" preserveAspectRatio="xMidYMid"><defs>
  <filter id="editing-scratch" x="-100%" y="-100%" width="300%" height="300%">
    <!-- COLOR -->
    <feFlood flood-color="#ddd" flood-opacity="0.75" result="COLOR-blu"></feFlood>
    <feFlood flood-color="#666" flood-opacity="0.4" result="COLOR-red"></feFlood>
    <!-- COLOR END -->

    <!-- Texture -->
    <feTurbulence baseFrequency=".05" type="fractalNoise" numOctaves="3" seed="0" result="Texture_10"></feTurbulence>
    <feColorMatrix type="matrix" values="0 0 0 0 0,
    0 0 0 0 0,
    0 0 0 0 0,
    0 0 0 -2.1 1.1" in="Texture_10" result="Texture_20"></feColorMatrix>

    <feColorMatrix result="Texture_30" type="matrix" values="0 0 0 0 0,
    0 0 0 0 0,
    0 0 0 0 0,
    0 0 0 -1.7 1.8" in="Texture_10"></feColorMatrix>
    <!-- Texture -->

    <!-- FILL -->
    <feOffset dx="-3" dy="4" in="SourceAlpha" result="FILL_10"></feOffset>
    <feDisplacementMap scale="17" in="FILL_10" in2="Texture_10" result="FILL_20"></feDisplacementMap>
    <feComposite operator="in" in="Texture_30" in2="FILL_20" result="FILL_40"></feComposite>
    <feComposite operator="in" in="COLOR-blu" in2="FILL_40" result="FILL_50"></feComposite>
    <!-- FILL END-->

    <!-- OUTLINE -->
    <feMorphology operator="dilate" radius="3" in="SourceGraphic" result="OUTLINE_10"></feMorphology>
    <feComposite operator="out" in="OUTLINE_10" in2="SourceGraphic" result="OUTLINE_20"></feComposite>
    <feDisplacementMap scale="7" in="OUTLINE_20" in2="Texture_10" result="OUTLINE_30"></feDisplacementMap>
    <feComposite operator="arithmetic" k2="-1" k3="1" in="Texture_20" in2="OUTLINE_30" result="OUTLINE_40"></feComposite>
    <!-- OUTLINE END-->

    <!-- BEVEL OUTLINE -->
    <feConvolveMatrix order="8,8" divisor="1" kernelMatrix="1 0 0 0 0 0 0 0 0 1 0 0 0 0 0 0 0 0 1 0 0 0 0 0 0 0 0 1 0 0 0 0 0 0 0 0 1 0 0 0 0 0 0 0 0 1 0 0 0 0 0 0 0 0 1 0 0 0 0 0 0 0 0 1 " in="SourceGraphic" result="BEVEL_10"></feConvolveMatrix>
    <feMorphology operator="dilate" radius="2" in="BEVEL_10" result="BEVEL_20"></feMorphology>
    <feComposite operator="out" in="BEVEL_20" in2="BEVEL_10" result="BEVEL_30"></feComposite>
    <feDisplacementMap scale="7" in="BEVEL_30" in2="Texture_10" result="BEVEL_40"></feDisplacementMap>
    <feComposite operator="arithmetic" k2="-1" k3="1" in="Texture_20" in2="BEVEL_40" result="BEVEL_50"></feComposite>
    <feOffset dx="-7" dy="-7" in="BEVEL_50" result="BEVEL_60"></feOffset>
    <feComposite operator="out" in="BEVEL_60" in2="OUTLINE_10" result="BEVEL_70"></feComposite>
    <!-- BEVEL OUTLINE END -->

    <!-- BEVEL FILL -->
    <feOffset dx="-9" dy="-9" in="BEVEL_10" result="BEVEL-FILL_10"></feOffset>
    <feComposite operator="out" in="BEVEL-FILL_10" in2="OUTLINE_10" result="BEVEL-FILL_20"></feComposite>
    <feDisplacementMap scale="17" in="BEVEL-FILL_20" in2="Texture_10" result="BEVEL-FILL_30"></feDisplacementMap>
    <feComposite operator="in" in="COLOR-red" in2="BEVEL-FILL_30" result="BEVEL-FILL_50"></feComposite> <!-- -->
    <!-- BEVEL FILL END-->

    <feMerge result="merge2">
     <feMergeNode in="BEVEL-FILL_50"></feMergeNode>
     <feMergeNode in="BEVEL_70"></feMergeNode>
     <feMergeNode in="FILL_50"></feMergeNode>
      <feMergeNode in="OUTLINE_40"></feMergeNode>
    </feMerge>
  </filter>
</defs>
<g filter="url(#editing-scratch)"><g transform="translate(143.92499816417694, 105.59499931335449)"><path d="M26.19-25.97L26.19-29.25L15.75-29.25L15.75-36.69L27.97-36.69L27.97-40L12.41-40L12.41-14.16L15.75-14.16L15.75-25.97L26.19-25.97ZM13.69-42.81L23.31-42.81L23.31-42.81Q26.47-42.81 29.03-41.88L29.03-41.88L29.03-41.88Q31.59-40.94 33.39-39.31L33.39-39.31L33.39-39.31Q35.19-37.69 36.16-35.52L36.16-35.52L36.16-35.52Q37.13-33.34 37.13-30.91L37.13-30.91L37.13-11.91L37.13-11.91Q37.13-9.47 36.16-7.30L36.16-7.30L36.16-7.30Q35.19-5.13 33.39-3.50L33.39-3.50L33.39-3.50Q31.59-1.88 29.03-0.94L29.03-0.94L29.03-0.94Q26.47 0 23.31 0L23.31 0L13.69 0L13.69 0Q10.53 0 7.97-0.94L7.97-0.94L7.97-0.94Q5.41-1.88 3.61-3.50L3.61-3.50L3.61-3.50Q1.81-5.13 0.84-7.30L0.84-7.30L0.84-7.30Q-0.13-9.47-0.13-11.91L-0.13-11.91L-0.13-30.91L-0.13-30.91Q-0.13-33.34 0.84-35.52L0.84-35.52L0.84-35.52Q1.81-37.69 3.61-39.31L3.61-39.31L3.61-39.31Q5.41-40.94 7.97-41.88L7.97-41.88L7.97-41.88Q10.53-42.81 13.69-42.81L13.69-42.81ZM61.06-14.53L64.16-14.19L64.16-21.31L64.16-35L64.16-37.63L62.03-39.63L58.91-40L51.78-40L48.13-39.56L48.91-36.16L51.84-36.75L58.81-36.75L60.69-36.34L61.13-34.69L61.13-27.41L58.91-27.78L51.78-27.78L48.66-27.31L46.66-25.34L46.22-22.78L46.22-19.13L46.66-16.50L48.66-14.53L51.78-14.16L58.63-14.16L61.06-14.53ZM61.13-19.47L61.13-17.78L58.69-17.47L51.97-17.47L50-17.78L49.56-19.66L49.56-22.34L49.81-24.13L51.97-24.44L58.75-24.44L61.13-24.19L61.13-19.47ZM50.69-42.81L60.31-42.81L60.31-42.81Q63.47-42.81 66.03-41.88L66.03-41.88L66.03-41.88Q68.59-40.94 70.39-39.31L70.39-39.31L70.39-39.31Q72.19-37.69 73.16-35.52L73.16-35.52L73.16-35.52Q74.13-33.34 74.13-30.91L74.13-30.91L74.13-11.91L74.13-11.91Q74.13-9.47 73.16-7.30L73.16-7.30L73.16-7.30Q72.19-5.13 70.39-3.50L70.39-3.50L70.39-3.50Q68.59-1.88 66.03-0.94L66.03-0.94L66.03-0.94Q63.47 0 60.31 0L60.31 0L50.69 0L50.69 0Q47.53 0 44.97-0.94L44.97-0.94L44.97-0.94Q42.41-1.88 40.61-3.50L40.61-3.50L40.61-3.50Q38.81-5.13 37.84-7.30L37.84-7.30L37.84-7.30Q36.88-9.47 36.88-11.91L36.88-11.91L36.88-30.91L36.88-30.91Q36.88-33.34 37.84-35.52L37.84-35.52L37.84-35.52Q38.81-37.69 40.61-39.31L40.61-39.31L40.61-39.31Q42.41-40.94 44.97-41.88L44.97-41.88L44.97-41.88Q47.53-42.81 50.69-42.81L50.69-42.81ZM104.78-15.88L94.44-27.66L105.19-38.28L102.94-40.91L90.06-28.16L90.06-40L86.75-40L86.75-14.16L90.06-14.16L90.06-23.94L90.06-23.94Q90.59-24.38 90.98-24.73L90.98-24.73L90.98-24.73Q91.38-25.09 91.88-25.53L91.88-25.53L102.09-13.56L104.78-15.88ZM87.69-42.81L97.31-42.81L97.31-42.81Q100.47-42.81 103.03-41.88L103.03-41.88L103.03-41.88Q105.59-40.94 107.39-39.31L107.39-39.31L107.39-39.31Q109.19-37.69 110.16-35.52L110.16-35.52L110.16-35.52Q111.13-33.34 111.13-30.91L111.13-30.91L111.13-11.91L111.13-11.91Q111.13-9.47 110.16-7.30L110.16-7.30L110.16-7.30Q109.19-5.13 107.39-3.50L107.39-3.50L107.39-3.50Q105.59-1.88 103.03-0.94L103.03-0.94L103.03-0.94Q100.47 0 97.31 0L97.31 0L87.69 0L87.69 0Q84.53 0 81.97-0.94L81.97-0.94L81.97-0.94Q79.41-1.88 77.61-3.50L77.61-3.50L77.61-3.50Q75.81-5.13 74.84-7.30L74.84-7.30L74.84-7.30Q73.88-9.47 73.88-11.91L73.88-11.91L73.88-30.91L73.88-30.91Q73.88-33.34 74.84-35.52L74.84-35.52L74.84-35.52Q75.81-37.69 77.61-39.31L77.61-39.31L77.61-39.31Q79.41-40.94 81.97-41.88L81.97-41.88L81.97-41.88Q84.53-42.81 87.69-42.81L87.69-42.81ZM130.91-25.97L125.34-40L121.44-40L129.25-21.44L129.25-14.16L132.56-14.16L132.56-21.38L140.50-40L136.59-40L130.91-25.97ZM124.69-42.81L134.31-42.81L134.31-42.81Q137.47-42.81 140.03-41.88L140.03-41.88L140.03-41.88Q142.59-40.94 144.39-39.31L144.39-39.31L144.39-39.31Q146.19-37.69 147.16-35.52L147.16-35.52L147.16-35.52Q148.13-33.34 148.13-30.91L148.13-30.91L148.13-11.91L148.13-11.91Q148.13-9.47 147.16-7.30L147.16-7.30L147.16-7.30Q146.19-5.13 144.39-3.50L144.39-3.50L144.39-3.50Q142.59-1.88 140.03-0.94L140.03-0.94L140.03-0.94Q137.47 0 134.31 0L134.31 0L124.69 0L124.69 0Q121.53 0 118.97-0.94L118.97-0.94L118.97-0.94Q116.41-1.88 114.61-3.50L114.61-3.50L114.61-3.50Q112.81-5.13 111.84-7.30L111.84-7.30L111.84-7.30Q110.88-9.47 110.88-11.91L110.88-11.91L110.88-30.91L110.88-30.91Q110.88-33.34 111.84-35.52L111.84-35.52L111.84-35.52Q112.81-37.69 114.61-39.31L114.61-39.31L114.61-39.31Q116.41-40.94 118.97-41.88L118.97-41.88L118.97-41.88Q121.53-42.81 124.69-42.81L124.69-42.81ZM161.69-42.81L171.31-42.81L171.31-42.81Q174.47-42.81 177.03-41.88L177.03-41.88L177.03-41.88Q179.59-40.94 181.39-39.31L181.39-39.31L181.39-39.31Q183.19-37.69 184.16-35.52L184.16-35.52L184.16-35.52Q185.13-33.34 185.13-30.91L185.13-30.91L185.13-11.91L185.13-11.91Q185.13-9.47 184.16-7.30L184.16-7.30L184.16-7.30Q183.19-5.13 181.39-3.50L181.39-3.50L181.39-3.50Q179.59-1.88 177.03-0.94L177.03-0.94L177.03-0.94Q174.47 0 171.31 0L171.31 0L161.69 0L161.69 0Q158.53 0 155.97-0.94L155.97-0.94L155.97-0.94Q153.41-1.88 151.61-3.50L151.61-3.50L151.61-3.50Q149.81-5.13 148.84-7.30L148.84-7.30L148.84-7.30Q147.88-9.47 147.88-11.91L147.88-11.91L147.88-30.91L147.88-30.91Q147.88-33.34 148.84-35.52L148.84-35.52L148.84-35.52Q149.81-37.69 151.61-39.31L151.61-39.31L151.61-39.31Q153.41-40.94 155.97-41.88L155.97-41.88L155.97-41.88Q158.53-42.81 161.69-42.81L161.69-42.81ZM177.56-19.19L177.56-40L174.25-40L174.25-19.53L174.25-19.53Q174.19-19.13 174.05-18.66L174.05-18.66L174.05-18.66Q173.91-18.19 173.78-17.78L173.78-17.78L171.75-17.47L163.75-17.47L161.69-17.78L161.25-19.66L161.25-40L158-40L158-19.19L158.38-16.50L160.41-14.53L163.56-14.16L171.94-14.16L175.13-14.53L177.13-16.50L177.56-19.19ZM172.50-40.41L163.94-40.41L163.94-40.41Q163.22-40.72 162.53-41.23L162.53-41.23L162.53-41.23Q161.84-41.75 161.31-42.44L161.31-42.44L161.31-42.44Q160.78-43.13 160.47-43.95L160.47-43.95L160.47-43.95Q160.16-44.78 160.16-45.72L160.16-45.72L160.16-45.72Q160.16-46.03 160.25-46.69L160.25-46.69L160.25-46.69Q160.34-47.34 160.69-48.67L160.69-48.67L160.69-48.67Q161.03-50 161.67-52.16L161.67-52.16L161.67-52.16Q162.31-54.31 163.41-57.66L163.41-57.66L163.41-57.66Q163.78-58.63 164.50-59.31L164.50-59.31L164.50-59.31Q165.22-60 166.20-60.41L166.20-60.41L166.20-60.41Q167.19-60.81 168.39-61L168.39-61L168.39-61Q169.59-61.19 170.91-61.19L170.91-61.19L170.91-61.19Q172.66-61.19 174.31-60.78L174.31-60.78L174.31-60.78Q175.97-60.38 177.27-59.58L177.27-59.58L177.27-59.58Q178.56-58.78 179.34-57.61L179.34-57.61L179.34-57.61Q180.13-56.44 180.13-54.91L180.13-54.91L180.13-54.91Q180.09-54.03 179.80-52.98L179.80-52.98L179.80-52.98Q179.50-51.94 178.78-50.75L178.78-50.75L173.84-42.31L173.84-42.31Q173.47-41.69 173.16-41.22L173.16-41.22L173.16-41.22Q172.84-40.75 172.50-40.41L172.50-40.41ZM168.53-45.31L173.28-55.75L169.50-55.75L166.38-45.31L168.53-45.31ZM198.69-42.81L198.69-42.81L198.69-42.81Q201.78-42.75 204.30-41.80L204.30-41.80L204.30-41.80Q206.81-40.84 208.59-39.23L208.59-39.23L208.59-39.23Q210.38-37.63 211.33-35.48L211.33-35.48L211.33-35.48Q212.28-33.34 212.28-30.91L212.28-30.91L212.28-11.91L212.28-11.91Q212.28-9.47 211.31-7.30L211.31-7.30L211.31-7.30Q210.34-5.13 208.53-3.50L208.53-3.50L208.53-3.50Q206.72-1.88 204.17-0.94L204.17-0.94L204.17-0.94Q201.63 0 198.44 0L198.44 0L198.44 0Q195.31 0 192.81-0.95L192.81-0.95L192.81-0.95Q190.31-1.91 188.55-3.55L188.55-3.55L188.55-3.55Q186.78-5.19 185.83-7.34L185.83-7.34L185.83-7.34Q184.88-9.50 184.88-11.91L184.88-11.91L184.88-30.91L184.88-30.91Q184.88-33.34 185.84-35.52L185.84-35.52L185.84-35.52Q186.81-37.69 188.61-39.31L188.61-39.31L188.61-39.31Q190.41-40.94 192.97-41.88L192.97-41.88L192.97-41.88Q195.53-42.81 198.69-42.81ZM201-40L196.59-40L197.88-19.59L199.72-19.59L201-40ZM197.16-17.03L197.16-13.69L201-13.69L200.50-17.03L197.16-17.03Z" fill="#000"></path></g></g><style>text {
  font-size: 64px;
  font-family: Arial Black;
  dominant-baseline: central;
  text-anchor: middle;
}</style></svg>